<?xml version="1.0" standalone="no"?><!DOCTYPE svg PUBLIC "-//W3C//DTD SVG 1.1//EN" "http://www.w3.org/Graphics/SVG/1.1/DTD/svg11.dtd"><svg t="1615816289846" class="icon" viewBox="0 0 1024 1024" version="1.1" xmlns="http://www.w3.org/2000/svg" p-id="13783" xmlns:xlink="http://www.w3.org/1999/xlink" width="200" height="200"><defs><style type="text/css"></style></defs><path d="M512 118.31808c217.15456 0 393.68704 176.52736 393.68704 393.68192S729.15456 905.68704 512 905.68704 118.31808 729.15456 118.31808 512 294.84544 118.31808 512 118.31808M512 31.744C246.9632 31.744 31.744 246.9632 31.744 512s215.2192 480.256 480.256 480.256 480.256-215.2192 480.256-480.256S777.0368 31.744 512 31.744z" p-id="13784" fill="#1afa29"></path><path d="M778.97216 555.04384H245.02784c-18.86208 0-33.85344-19.34336-33.85344-43.04384 0-23.69536 14.99136-43.04384 33.85344-43.04384h533.4528c18.8672 0 33.85344 19.34336 33.85344 43.04384 0.49152 24.18176-14.98624 43.04384-33.36192 43.04384z" p-id="13785" fill="#1afa29"></path><path d="M468.95616 778.97216V245.02784c0-18.86208 19.34336-33.85344 43.04384-33.85344s43.04384 14.99136 43.04384 33.85344v533.4528c0 18.8672-19.34336 33.85344-43.04384 33.85344-24.18176 0.49152-43.04384-14.98624-43.04384-33.36192z" p-id="13786" fill="#1afa29"></path></svg>