<?xml version="1.0" standalone="no"?><!DOCTYPE svg PUBLIC "-//W3C//DTD SVG 1.1//EN" "http://www.w3.org/Graphics/SVG/1.1/DTD/svg11.dtd"><svg t="1615816076157" class="icon" viewBox="0 0 1024 1024" version="1.1" xmlns="http://www.w3.org/2000/svg" p-id="12090" xmlns:xlink="http://www.w3.org/1999/xlink" width="200" height="200"><defs><style type="text/css"></style></defs><path d="M822.336 470.144v110.08a55.424 55.424 0 0 1-55.04 56.064 55.168 55.168 0 0 1-39.04-16.576 55.936 55.936 0 0 1-16-39.552V470.144H603.072a55.04 55.04 0 0 1-39.296-16 55.808 55.808 0 0 1-16.448-39.36c0-30.592 24.96-55.424 55.744-55.424h109.312V249.344c0-30.976 24.384-56.128 55.04-56.128 30.336 0 54.976 25.152 54.976 56.128v110.08h109.248a55.424 55.424 0 1 1 0 110.72H822.4zM144 174.784H52.224A55.296 55.296 0 0 1 0 119.36C0 89.92 22.976 65.536 52.224 64h403.52a55.296 55.296 0 0 1 52.224 55.36 55.296 55.296 0 0 1-52.224 55.424H254.08v627.648h265.92a164.992 164.992 0 0 1 155.84-110.72h182.912A165.312 165.312 0 0 1 1024 857.856c0 44.16-17.344 86.4-48.384 117.568a164.288 164.288 0 0 1-116.864 48.576H675.84a164.928 164.928 0 0 1-155.904-110.72H207.488c-7.04 0-14.08-1.344-20.608-3.968a55.616 55.616 0 0 1-42.88-54.144V174.784z m476.544 683.072c0 30.848 24.448 55.36 55.232 55.36h182.912a55.04 55.04 0 0 0 55.232-55.36 55.296 55.296 0 0 0-16.128-39.36 54.528 54.528 0 0 0-39.04-16H675.84a54.656 54.656 0 0 0-39.04 16.064 55.424 55.424 0 0 0-16.192 39.296z" p-id="12091" fill="#1afa29"></path></svg>