<?xml version="1.0" standalone="no"?><!DOCTYPE svg PUBLIC "-//W3C//DTD SVG 1.1//EN" "http://www.w3.org/Graphics/SVG/1.1/DTD/svg11.dtd"><svg t="1615818165680" class="icon" viewBox="0 0 1024 1024" version="1.1" xmlns="http://www.w3.org/2000/svg" p-id="2534" xmlns:xlink="http://www.w3.org/1999/xlink" width="200" height="200"><defs><style type="text/css"></style></defs><path d="M744.746667 1024c-154.24 0-279.296-125.034667-279.296-279.253333 0-154.24 125.034667-279.296 279.274666-279.296C898.986667 465.450667 1024 590.506667 1024 744.746667 1024 898.986667 898.965333 1024 744.746667 1024z m0-465.450667a186.176 186.176 0 1 0 0 372.352 186.176 186.176 0 0 0 0-372.352z m46.506666 325.824h-93.077333V791.253333h-93.077333v-93.098666h93.077333v-93.077334h93.098667v93.077334h93.098666v93.098666H791.253333v93.098667zM586.773333 279.253333l-167.850666 439.850667v25.6h-93.077334v-93.098667h18.346667L512 211.776v-25.6h93.098667v93.098667h-18.346667z m-354.026666 512a93.098667 93.098667 0 1 1 0-186.176 93.098667 93.098667 0 0 1 0 186.176zM698.176 139.626667a93.098667 93.098667 0 1 1 0 186.197333 93.098667 93.098667 0 0 1 0-186.197333z m139.648-46.528H93.077333v744.725333h325.824v93.077333H93.098667A93.098667 93.098667 0 0 1 0 837.824V93.077333A93.098667 93.098667 0 0 1 93.098667 0h744.725333a93.098667 93.098667 0 0 1 93.077333 93.098667v325.802666h-93.077333V93.098667z" p-id="2535" fill="#1afa29"></path></svg>