<?xml version="1.0" standalone="no"?><!DOCTYPE svg PUBLIC "-//W3C//DTD SVG 1.1//EN" "http://www.w3.org/Graphics/SVG/1.1/DTD/svg11.dtd"><svg t="1615816058710" class="icon" viewBox="0 0 1024 1024" version="1.1" xmlns="http://www.w3.org/2000/svg" p-id="11192" xmlns:xlink="http://www.w3.org/1999/xlink" width="200" height="200"><defs><style type="text/css"></style></defs><path d="M743.104 692.928l271.552 271.488-45.248 45.248-271.552-271.488z" p-id="11193" fill="#d81e06"></path><path d="M1013.504 735.936l-271.488 271.488-45.312-45.248 271.552-271.552zM537.6 435.2C416 435.2 320 332.8 320 217.6S416 0 537.6 0s217.6 96 217.6 217.6-102.4 217.6-217.6 217.6z m0-384C448 51.2 371.2 128 371.2 217.6S441.6 384 537.6 384 704 307.2 704 217.6 627.2 51.2 537.6 51.2zM217.6 1011.2c-121.6 0-217.6-96-217.6-217.6S96 576 217.6 576s217.6 96 217.6 217.6-102.4 217.6-217.6 217.6z m0-384C128 627.2 51.2 704 51.2 793.6S121.6 960 217.6 960 384 883.2 384 793.6 307.2 627.2 217.6 627.2z" p-id="11194" fill="#d81e06"></path><path d="M556.8 556.8V390.4H512v166.4l-134.4 134.4 32 38.4 115.2-115.2 12.8-12.8 12.8 12.8 108.8 115.2 38.4-38.4z" p-id="11195" fill="#d81e06"></path></svg>