<?xml version="1.0" standalone="no"?><!DOCTYPE svg PUBLIC "-//W3C//DTD SVG 1.1//EN" "http://www.w3.org/Graphics/SVG/1.1/DTD/svg11.dtd"><svg t="1615816102759" class="icon" viewBox="0 0 1024 1024" version="1.1" xmlns="http://www.w3.org/2000/svg" p-id="12882" xmlns:xlink="http://www.w3.org/1999/xlink" width="200" height="200"><defs><style type="text/css"></style></defs><path d="M744.740571 1024a279.259429 279.259429 0 1 1 0-558.567619 279.259429 279.259429 0 0 1 0 558.567619z m0-465.432381a186.172952 186.172952 0 1 0 0 372.345905 186.172952 186.172952 0 0 0 0-372.345905z m-46.567619 232.69181H605.135238v-93.086477h279.308191v93.135238h-186.221715z m0-651.605334a93.135238 93.135238 0 1 1-80.603428 139.605334h-30.817524l-167.838476 439.832381v25.648761H313.344a93.037714 93.037714 0 1 1 0-93.135238h30.817524l167.838476-439.832381v-25.6h105.569524c16.091429-27.794286 46.177524-46.518857 80.603428-46.518857z m139.654096-46.567619H93.086476v744.740572h325.827048v93.086476H93.086476A93.135238 93.135238 0 0 1 0 837.729524V93.135238A93.135238 93.135238 0 0 1 93.135238 0h744.69181a93.135238 93.135238 0 0 1 93.086476 93.135238v325.729524h-93.135238V93.135238z" p-id="12883" fill="#d81e06"></path></svg>