<?xml version="1.0" standalone="no"?><!DOCTYPE svg PUBLIC "-//W3C//DTD SVG 1.1//EN" "http://www.w3.org/Graphics/SVG/1.1/DTD/svg11.dtd"><svg t="1615818827372" class="icon" viewBox="0 0 1024 1024" version="1.1" xmlns="http://www.w3.org/2000/svg" p-id="1813" xmlns:xlink="http://www.w3.org/1999/xlink" width="200" height="200"><defs><style type="text/css"></style></defs><path d="M821.333333 576v245.333333h-618.666666v-618.666666H448A32 32 0 0 0 480 170.666667 32 32 0 0 0 448 138.666667H160a21.333333 21.333333 0 0 0-21.333333 21.333333v704a21.333333 21.333333 0 0 0 21.333333 21.333333h704a21.333333 21.333333 0 0 0 21.333333-21.333333V576a32 32 0 0 0-32-32 32 32 0 0 0-32 32z" fill="#e98f36" p-id="1814"></path><path d="M864 138.666667h-234.666667a32 32 0 0 0 0 64h146.773334L393.173333 585.6a32 32 0 0 0 0 45.226667 32 32 0 0 0 45.226667 0L821.333333 247.893333v146.773334a32 32 0 0 0 64 0v-234.666667a21.333333 21.333333 0 0 0-21.333333-21.333333z" fill="#e98f36" p-id="1815"></path></svg>