<?xml version="1.0" standalone="no"?><!DOCTYPE svg PUBLIC "-//W3C//DTD SVG 1.1//EN" "http://www.w3.org/Graphics/SVG/1.1/DTD/svg11.dtd"><svg t="1615815880830" class="icon" viewBox="0 0 1151 1024" version="1.1" xmlns="http://www.w3.org/2000/svg" p-id="9094" xmlns:xlink="http://www.w3.org/1999/xlink" width="224.8046875" height="200"><defs><style type="text/css"></style></defs><path d="M1023.988 128.009H799.985V64.004A64.085 64.085 0 0 0 735.98 0H415.994a64.085 64.085 0 0 0-64.005 64.004v64.005H127.997A128.124 128.124 0 0 0 0 256.006V895.99a128.124 128.124 0 0 0 127.997 127.997h895.991a128.124 128.124 0 0 0 127.998-127.997V256.006a128.124 128.124 0 0 0-127.998-127.997zM415.994 64.004h319.998v64.005H415.994zM127.997 192.001h895.991a64.085 64.085 0 0 1 64.005 64.005v191.99H64.004v-191.99A64.085 64.085 0 0 1 127.997 192zM666.09 512c-13.248 37.163-48.384 64.004-90.097 64.004s-76.85-26.84-90.097-64.004z m357.898 447.996h-895.99a64.085 64.085 0 0 1-64.005-64.005V512H419.23c14.872 72.932 79.487 127.997 156.762 127.997S717.883 584.932 732.755 512h355.226v383.991a64.085 64.085 0 0 1-63.993 64.005z" p-id="9095" fill="#2c2c2c"></path></svg>