<?xml version="1.0" standalone="no"?><!DOCTYPE svg PUBLIC "-//W3C//DTD SVG 1.1//EN" "http://www.w3.org/Graphics/SVG/1.1/DTD/svg11.dtd"><svg t="1615816360728" class="icon" viewBox="0 0 1024 1024" version="1.1" xmlns="http://www.w3.org/2000/svg" p-id="14692" xmlns:xlink="http://www.w3.org/1999/xlink" width="200" height="200"><defs><style type="text/css"></style></defs><path d="M419.2 128a64 64 0 0 1 39.957333 14.016L548.288 213.333333H853.333333a128 128 0 0 1 127.914667 123.2L981.333333 341.333333v426.666667a128 128 0 0 1-128 128H170.666667a128 128 0 0 1-128-128V256a128 128 0 0 1 128-128z m-7.488 85.333333H170.666667a42.666667 42.666667 0 0 0-42.666667 42.666667v512a42.666667 42.666667 0 0 0 42.666667 42.666667h682.666666a42.666667 42.666667 0 0 0 42.666667-42.666667V341.333333a42.666667 42.666667 0 0 0-42.666667-42.666666H540.8a64 64 0 0 1-39.957333-14.016L411.712 213.333333zM533.333333 384a21.333333 21.333333 0 0 1 21.333334 21.333333v106.666667h106.666666a21.333333 21.333333 0 0 1 21.333334 21.333333v42.666667a21.333333 21.333333 0 0 1-21.333334 21.333333h-106.666666v106.666667a21.333333 21.333333 0 0 1-21.333334 21.333333h-42.666666a21.333333 21.333333 0 0 1-21.333334-21.333333v-106.666667h-106.666666a21.333333 21.333333 0 0 1-21.333334-21.333333v-42.666667a21.333333 21.333333 0 0 1 21.333334-21.333333h106.666666v-106.666667a21.333333 21.333333 0 0 1 21.333334-21.333333h42.666666z" p-id="14693" fill="#2c2c2c"></path></svg>